PathFileType	4	(X/Y/Z)	C:/Users/opensim2020/Desktop/walking_exp_matlab/subject01_walking11_straight_03.trc																																																																																																																																		
DataRate	CameraRate	NumFrames	NumMarkers	Units	OrigDataRate	OrigDataStartFrame	OrigNumFrames																																																																																																																														
100	100	5	44	mm	100	3123	338																																																																																																																														
Frame#	Time	LFHD			RFHD			LBHD			RBHD			C7			T10			CLAV			STRN			RBAK			LSHO			LUPA			LELB			LFRM			LWRA			LWRB			LFIN			RSHO			RUPA			RELB			RFRM			RWRA			RWRB			RFIN			LASI			RASI			LPSI			RPSI			LTHI			LKNE			LTIB			LANK			LHEE			LTOE			RTHI			RKNE			RTIB			RANK			RHEE			RTOE			*39			*40			*41			*42			*43		
		X1	Y1	Z1	X2	Y2	Z2	X3	Y3	Z3	X4	Y4	Z4	X5	Y5	Z5	X6	Y6	Z6	X7	Y7	Z7	X8	Y8	Z8	X9	Y9	Z9	X10	Y10	Z10	X11	Y11	Z11	X12	Y12	Z12	X13	Y13	Z13	X14	Y14	Z14	X15	Y15	Z15	X16	Y16	Z16	X17	Y17	Z17	X18	Y18	Z18	X19	Y19	Z19	X20	Y20	Z20	X21	Y21	Z21	X22	Y22	Z22	X23	Y23	Z23	X24	Y24	Z24	X25	Y25	Z25	X26	Y26	Z26	X27	Y27	Z27	X28	Y28	Z28	X29	Y29	Z29	X30	Y30	Z30	X31	Y31	Z31	X32	Y32	Z32	X33	Y33	Z33	X34	Y34	Z34	X35	Y35	Z35	X36	Y36	Z36	X37	Y37	Z37	X38	Y38	Z38	X39	Y39	Z39	X40	Y40	Z40	X41	Y41	Z41	X42	Y42	Z42	X43	Y43	Z43	X44	Y44	Z44
																																																																																																																																					
296	2.95	920.75055	1667.85388	1320.60046	968.11798	1671.77441	1423.54102	808.63104	1636.28503	1365.23987	855.65448	1639.85278	1475.28918	768.51556	1435.6792	1397.25256	726.81738	1143.50842	1411.83533	910.14423	1365.36011	1387.85364	950.97742	1209.44214	1381.03979	713.44568	1241.5769	1477.7998	840.90039	1397.90576	1233.18066	834.82013	1216.04639	1146.20398	857.04462	1066.55957	1139.33325	923.97253	975.1358	1111.03394	1032.7926	887.21704	1127.65088	982.55786	867.84564	1100.9978	1050.23108	816.55688	1090.78589	854.20782	1395.9585	1542.62573	788.73596	1200.1261	1645.54895	784.05487	1075.901	1650.50439	807.2019	958.5025	1684.45276	884.71393	839.08813	1671.48816	839.9837	842.14532	1708.83325	873.80963	761.53357	1707.8009	884.28595	929.27209	1295.65686	906.43927	938.72845	1510.88831	703.03308	947.72552	1368.72351	721.28448	951.0603	1513.30212	825.76074	596.8504	1260.21277	805.95502	463.0722	1282.27625	733.88141	287.13672	1284.40613	684.58209	76.81163	1349.61194	640.44476	50.22156	1405.09338	828.51788	37.98295	1333.59265	930.15869	614.776	1586.59888	990.70081	470.38919	1555.00317	994.4248	298.18341	1571.84949	1038.98169	92.82756	1532.8479	1001.33936	39.55629	1485.77209	1182.26465	94.61349	1518.68494	953.56714	1706.40039	1404.1864	1973.05457	1023.34198	-3101.91235	2012.40552	1022.0744	-3140.75146	NaN	NaN	NaN	NaN	NaN	NaN
297	2.96	927.12177	1667.23633	1321.04065	974.62207	1671.05212	1423.93665	814.66846	1635.83875	1365.79431	862.2085	1639.26538	1475.87341	774.91174	1435	1398.04199	733.88776	1142.81482	1412.40796	916.41229	1364.7301	1388.23828	957.30304	1208.88342	1381.28699	719.99139	1240.80347	1478.38879	846.88715	1397.37952	1233.73877	840.81653	1215.4519	1146.89331	863.54437	1065.95972	1139.84241	930.66309	974.9339	1111.28015	1039.97778	887.55463	1127.09412	989.6004	867.94012	1100.76196	1057.51978	817.10724	1089.80945	860.63824	1395.08167	1542.92603	795.21863	1199.42444	1645.96155	790.31073	1075.22058	1650.81543	813.21442	957.80823	1684.75635	890.63086	838.25702	1671.74866	846.09064	841.6167	1709.38306	879.60565	760.73987	1708.05823	890.0274	928.60974	1295.55811	913.41504	938.00818	1510.63916	709.48553	947.00641	1369.31274	728.1651	950.07288	1513.74121	830.26941	596.45514	1260.26794	809.59729	462.67828	1282.3241	736.21375	287.45798	1284.43616	685.06866	77.42819	1349.58655	640.45685	51.02998	1404.79163	828.62817	37.99133	1333.56531	936.56665	613.66461	1586.61108	997.30225	470.06021	1554.56128	1004.36688	297.99661	1571.76331	1052.29663	93.44067	1532.66626	1015.03497	39.41041	1485.97986	1195.47852	97.40665	1516.85474	960.03864	1705.6897	1404.62122	1973.026	1023.54358	-3102.01978	2012.43152	1021.91187	-3140.65942	NaN	NaN	NaN	NaN	NaN	NaN
298	2.97	933.34589	1666.58447	1321.54675	981.08344	1670.37451	1424.3833	821.00482	1635.26331	1366.57507	868.75928	1638.63513	1476.53699	781.21692	1434.26135	1398.82361	739.88641	1142.19739	1413.09644	922.7514	1364.12158	1388.75171	963.66492	1208.33411	1381.61902	726.5899	1240.026	1479.13708	852.9314	1396.84607	1234.38916	847.06903	1214.88062	1147.51489	869.93829	1065.64075	1140.82202	937.25122	974.68811	1111.47522	1047.10571	887.82678	1126.32617	996.25208	867.86127	1100.94299	1064.48608	817.47028	1088.90247	867.28027	1394.52991	1543.74097	801.78271	1198.66772	1646.45752	796.71533	1074.50159	1651.20227	819.47632	957.07996	1685.09253	896.68933	837.39227	1672.07642	852.03571	840.77631	1709.58667	885.55927	759.90533	1708.33289	896.39471	928.14124	1295.2052	920.46503	937.26532	1510.4353	715.99658	946.30591	1370.00061	735.19482	949.28961	1514.44226	834.79211	596.07697	1260.37732	813.39032	462.28699	1282.30884	738.38635	287.67462	1284.44165	684.80591	77.77057	1349.40833	640.49115	52.1763	1404.82483	828.7287	38.01938	1333.51746	943.56036	612.99664	1587.03967	1004.28992	469.67554	1554.13989	1013.77692	297.83298	1571.69055	1064.1438	93.78733	1532.56677	1027.29175	39.10478	1486.10925	1207.33691	99.44859	1515.19592	966.49597	1705.0094	1405.11743	1973.14075	1023.38562	-3101.99048	2012.47925	1022.12518	-3140.68872	NaN	NaN	NaN	NaN	NaN	NaN
299	2.98	939.58008	1665.87158	1322.2699	987.53613	1669.69727	1424.96155	827.27661	1634.55872	1367.4425	875.28455	1637.98157	1477.34668	787.48419	1433.54712	1399.75732	746.36328	1141.38379	1413.875	929.09442	1363.50525	1389.33606	970.10223	1207.75366	1381.98169	733.21008	1239.11829	1479.922	858.89172	1396.32458	1235.14563	853.18365	1214.34277	1148.32544	876.29773	1065.05737	1141.35339	943.85107	974.42664	1111.7749	1054.09766	888.07043	1125.62866	1003.10693	867.80768	1100.81665	1071.38513	817.82288	1088.06824	873.90094	1393.82446	1544.5177	808.43402	1197.86475	1647.08972	803.20972	1073.72327	1651.70654	825.7915	956.23627	1685.50232	902.86896	836.47388	1672.45142	858.02399	839.60034	1709.65503	891.54077	758.84674	1708.58325	902.66113	927.60474	1295.11548	927.50867	936.53644	1510.33459	722.56494	945.58282	1370.78455	742.33014	948.37476	1515.21265	839.44135	595.66449	1260.51514	817.1955	461.93967	1282.30408	740.74872	287.95145	1284.48291	685.83813	78.76073	1349.39587	640.84644	53.01973	1404.78394	828.79779	38.02523	1333.50122	950.69635	612.02222	1587.10364	1011.55658	469.33191	1553.79248	1023.01453	297.96722	1572.15002	1074.50305	93.4539	1532.15662	1038.15894	39.16952	1485.95605	1217.86084	100.48234	1513.94299	972.89539	1704.34021	1405.67102	1973.02588	1023.98981	-3102.03711	2012.51257	1022.14063	-3140.58618	NaN	NaN	NaN	NaN	NaN	NaN
300	2.99	945.76971	1665.1947	1322.90613	993.92078	1669.05493	1425.57971	833.55774	1633.8783	1368.4458	881.79816	1637.29785	1478.21326	793.68896	1432.85437	1400.77759	753.05164	1140.51611	1414.7251	935.46289	1362.88025	1390.08423	976.57104	1207.17786	1382.43628	739.91479	1238.1925	1480.85461	864.95331	1395.78088	1235.9541	859.51642	1213.81531	1149.12988	882.9657	1064.62939	1142.19421	950.39514	974.2287	1112.15808	1060.87158	888.01935	1125.151	1009.73016	867.62885	1100.68689	1078.11584	817.95679	1087.43494	880.42029	1392.88184	1545.15857	815.06927	1196.98694	1647.77637	809.76471	1072.90344	1652.31384	832.20911	955.33966	1685.97729	909.19702	835.4892	1672.82922	864.71094	839.25116	1710.72827	897.84113	758.03204	1709.06445	909.4234	927.20514	1295.05896	934.64832	935.69556	1510.30261	729.25385	944.80017	1371.59998	749.40063	947.28302	1515.85522	844.10339	595.19812	1260.68738	821.12976	461.55939	1282.29138	743.15454	288.22308	1284.54163	685.74817	79.38071	1349.22632	641.06927	54.31288	1404.80408	828.81396	37.95808	1333.46265	958.31042	611.49567	1587.25537	1019.11853	468.90344	1553.41357	1031.04907	297.01865	1571.68066	1084.09509	93.52974	1532.25427	1047.56091	38.69237	1485.99841	1227.40076	100.99137	1513.33875	979.2547	1703.6759	1406.33484	1972.97546	1023.98584	-3102.03882	2012.43762	1022.06799	-3140.68799	NaN	NaN	NaN	NaN	NaN	NaN
